<?xml version="1.0" encoding="UTF-8"?><svg id="Layer_1" xmlns="http://www.w3.org/2000/svg" viewBox="0 0 120.49 120.48"><defs><style>.cls-1{opacity:.4;}.cls-1,.cls-2{isolation:isolate;}.cls-2{opacity:.2;}.cls-3{fill:#71c173;}</style></defs><g class="cls-2"><path class="cls-3" d="M60.26,120.47C27.05,120.47.04,93.45.04,60.25S27.05.02,60.26.02s60.22,27.02,60.22,60.22-27.02,60.22-60.22,60.22ZM60.26,4.84C29.71,4.84,4.86,29.7,4.86,60.25s24.85,55.4,55.4,55.4,55.4-24.85,55.4-55.4S90.81,4.84,60.26,4.84Z"/></g><g class="cls-1"><path class="cls-3" d="M60.26,107.62c-26.12,0-47.37-21.25-47.37-47.37S34.14,12.87,60.26,12.87s47.37,21.25,47.37,47.37-21.25,47.37-47.37,47.37ZM60.26,17.69c-23.47,0-42.56,19.09-42.56,42.56s19.09,42.56,42.56,42.56,42.56-19.09,42.56-42.56-19.09-42.56-42.56-42.56Z"/></g><path class="cls-3" d="M60.26,94.77c-19.04,0-34.53-15.49-34.53-34.53s15.49-34.53,34.53-34.53,34.53,15.49,34.53,34.53-15.49,34.53-34.53,34.53ZM60.26,30.54c-16.38,0-29.71,13.33-29.71,29.71s13.33,29.71,29.71,29.71,29.71-13.33,29.71-29.71-13.33-29.71-29.71-29.71Z"/><circle class="cls-3" cx="105.23" cy="60.25" r="6.42"/></svg>