<?xml version="1.0" encoding="UTF-8"?><svg id="Layer_1" xmlns="http://www.w3.org/2000/svg" viewBox="0 0 321.79 120.89"><defs><style>.cls-1{fill:#2d6e36;}.cls-2{fill:#83ae87;}.cls-3{fill:#518757;}</style></defs><path class="cls-2" d="M60.38.02C27.09.02,0,27.1,0,60.4s27.09,60.38,60.38,60.38,60.38-27.09,60.38-60.38S93.68.02,60.38.02ZM114.58,60.4c0,29.88-24.31,54.19-54.19,54.19S6.19,90.28,6.19,60.4,30.5,6.2,60.38,6.2s54.19,24.31,54.19,54.19Z"/><path class="cls-3" d="M60.38,12.75c-26.27,0-47.65,21.38-47.65,47.65s21.38,47.65,47.65,47.65,47.65-21.38,47.65-47.65S86.66,12.75,60.38,12.75ZM101.85,60.4c0,22.86-18.6,41.46-41.46,41.46s-41.46-18.6-41.46-41.46S37.52,18.93,60.38,18.93s41.46,18.6,41.46,41.46Z"/><path class="cls-1" d="M60.38,25.48c-19.25,0-34.92,15.67-34.92,34.92s15.67,34.92,34.92,34.92,34.92-15.67,34.92-34.92-15.67-34.92-34.92-34.92ZM89.11,60.4c0,15.84-12.89,28.73-28.73,28.73s-28.73-12.89-28.73-28.73,12.89-28.73,28.73-28.73,28.73,12.89,28.73,28.73Z"/><circle class="cls-1" cx="104.94" cy="60.4" r="7.07"/><path d="M143.14,81.26V31.68h18.92c11.26,0,17.84,5.7,17.84,15.46,0,6.65-3.12,11.39-8.95,13.77l9.43,20.35h-9.5l-8.41-18.52h-10.65v18.52h-8.68ZM151.82,55.08h10.24c5.49,0,8.75-2.92,8.75-7.94s-3.26-7.73-8.75-7.73h-10.24v15.67Z"/><path d="M200.93,46.81c10.38,0,17.91,7.19,17.91,17.63s-7.53,17.63-17.91,17.63-17.91-7.19-17.91-17.63,7.53-17.63,17.91-17.63ZM200.93,74.68c5.7,0,9.63-4.14,9.63-10.24s-3.93-10.24-9.63-10.24-9.63,4.14-9.63,10.24,3.93,10.24,9.63,10.24Z"/><path d="M228.21,81.26v-26.59h-6.44v-6.92h6.44v-10.45h8.28v10.45h6.51v6.92h-6.51v26.59h-8.28Z"/><path d="M269.17,55.29h-3.05c-5.97,0-9.7,3.19-9.7,9.7v16.28h-8.27v-33.44h7.8l.47,4.88c1.42-3.32,4.61-5.56,9.09-5.56,1.15,0,2.31.14,3.66.47v7.66Z"/><path d="M271.96,71.7c0-6.17,4.48-10.04,12.41-10.65l10.04-.75v-.75c0-4.54-2.71-6.38-6.92-6.38-4.88,0-7.6,2.04-7.6,5.56h-7.05c0-7.26,5.97-12.01,15.06-12.01s14.58,4.88,14.58,14.18v20.35h-7.26l-.61-4.95c-1.42,3.46-5.97,5.83-11.19,5.83-7.12,0-11.46-4.14-11.46-10.45ZM294.48,67.7v-1.76l-6.99.54c-5.15.47-7.12,2.17-7.12,4.88,0,3.05,2.03,4.54,5.76,4.54,5.09,0,8.34-3.05,8.34-8.21Z"/><path d="M310.69,76.72c0-2.98,2.51-5.43,5.49-5.43s5.49,2.44,5.49,5.43-2.51,5.36-5.49,5.36-5.49-2.44-5.49-5.36Z"/></svg>