<?xml version="1.0" encoding="UTF-8"?><svg id="Layer_1" xmlns="http://www.w3.org/2000/svg" viewBox="0 0 324.21 120.56"><defs><style>.cls-1{opacity:.4;}.cls-1,.cls-2{isolation:isolate;}.cls-2{opacity:.2;}.cls-3{fill:#71c173;}.cls-4{fill:#fff;}</style></defs><g class="cls-2"><path class="cls-3" d="M60.29,120.46C27.08,120.46.07,93.44.07,60.23S27.08.01,60.29.01s60.22,27.02,60.22,60.22-27.02,60.22-60.22,60.22ZM60.29,4.83C29.74,4.83,4.88,29.68,4.88,60.23s24.85,55.4,55.4,55.4,55.4-24.85,55.4-55.4S90.84,4.83,60.29,4.83Z"/></g><g class="cls-1"><path class="cls-3" d="M60.29,107.61c-26.12,0-47.37-21.25-47.37-47.37S34.17,12.86,60.29,12.86s47.37,21.25,47.37,47.37-21.25,47.37-47.37,47.37ZM60.29,17.68c-23.47,0-42.56,19.09-42.56,42.56s19.09,42.56,42.56,42.56,42.56-19.09,42.56-42.56-19.09-42.56-42.56-42.56Z"/></g><path class="cls-3" d="M60.29,94.76c-19.04,0-34.53-15.49-34.53-34.53s15.49-34.53,34.53-34.53,34.53,15.49,34.53,34.53-15.49,34.53-34.53,34.53ZM60.29,30.52c-16.38,0-29.71,13.33-29.71,29.71s13.33,29.71,29.71,29.71,29.71-13.33,29.71-29.71-13.33-29.71-29.71-29.71Z"/><circle class="cls-3" cx="105.26" cy="60.23" r="6.42"/><path class="cls-4" d="M143.95,81.51V31.47h19.1c11.36,0,18,5.75,18,15.61,0,6.71-3.15,11.5-9.04,13.9l9.51,20.54h-9.58l-8.49-18.69h-10.75v18.69h-8.76ZM152.71,55.08h10.34c5.54,0,8.83-2.94,8.83-8.01s-3.29-7.8-8.83-7.8h-10.34v15.81Z"/><path class="cls-4" d="M202.28,46.73c10.47,0,18.07,7.26,18.07,17.8s-7.6,17.8-18.07,17.8-18.07-7.26-18.07-17.8,7.6-17.8,18.07-17.8ZM202.28,74.87c5.75,0,9.72-4.18,9.72-10.34s-3.97-10.34-9.72-10.34-9.72,4.17-9.72,10.34,3.97,10.34,9.72,10.34Z"/><path class="cls-4" d="M229.8,81.51v-26.83h-6.5v-6.98h6.5v-10.54h8.35v10.54h6.57v6.98h-6.57v26.83h-8.35Z"/><path class="cls-4" d="M271.14,55.29h-3.08c-6.02,0-9.79,3.22-9.79,9.79v16.43h-8.35v-33.75h7.87l.48,4.93c1.44-3.35,4.66-5.61,9.17-5.61,1.16,0,2.33.14,3.7.48v7.73Z"/><path class="cls-4" d="M273.95,71.85c0-6.23,4.52-10.13,12.53-10.75l10.13-.75v-.75c0-4.59-2.74-6.43-6.98-6.43-4.93,0-7.67,2.05-7.67,5.61h-7.12c0-7.32,6.02-12.12,15.2-12.12s14.72,4.93,14.72,14.31v20.54h-7.32l-.62-5c-1.44,3.49-6.02,5.89-11.29,5.89-7.19,0-11.57-4.17-11.57-10.54ZM296.68,67.82v-1.78l-7.05.55c-5.2.48-7.19,2.19-7.19,4.93,0,3.08,2.05,4.59,5.82,4.59,5.13,0,8.42-3.08,8.42-8.28Z"/><path class="cls-4" d="M313.04,76.92c0-3.01,2.53-5.48,5.54-5.48s5.54,2.46,5.54,5.48-2.53,5.41-5.54,5.41-5.54-2.46-5.54-5.41Z"/></svg>