<?xml version="1.0" encoding="UTF-8"?><svg id="Layer_1" xmlns="http://www.w3.org/2000/svg" viewBox="0 0 120.84 120.79"><defs><style>.cls-1{fill:#2d6e36;}.cls-2{fill:#83ae87;}.cls-3{fill:#518757;}</style></defs><path class="cls-2" d="M60.42,0C27.12,0,.04,27.09.04,60.39s27.09,60.38,60.38,60.38,60.38-27.09,60.38-60.38S93.71,0,60.42,0ZM114.61,60.39c0,29.88-24.31,54.19-54.19,54.19S6.22,90.27,6.22,60.39,30.53,6.19,60.42,6.19s54.19,24.31,54.19,54.19Z"/><path class="cls-3" d="M60.42,12.73c-26.27,0-47.65,21.38-47.65,47.65s21.38,47.65,47.65,47.65,47.65-21.38,47.65-47.65S86.69,12.73,60.42,12.73ZM101.88,60.39c0,22.86-18.6,41.46-41.46,41.46s-41.46-18.6-41.46-41.46S37.55,18.92,60.42,18.92s41.46,18.6,41.46,41.46Z"/><path class="cls-1" d="M60.42,25.46c-19.25,0-34.92,15.67-34.92,34.92s15.67,34.92,34.92,34.92,34.92-15.67,34.92-34.92-15.67-34.92-34.92-34.92ZM89.15,60.39c0,15.84-12.89,28.73-28.73,28.73s-28.73-12.89-28.73-28.73,12.89-28.73,28.73-28.73,28.73,12.89,28.73,28.73Z"/><circle class="cls-1" cx="104.97" cy="60.39" r="7.07"/></svg>